/* XPM */
static char * bottom_right_active_xpm[] = {
"16 16 3 1",
"       c None",
".	c #29353B",
"x	c #0078d7",
"        ......xx"};
"        ......xx"};
"        ......xx"};
"        ......xx"};
"        ......xx"};
"        ......xx"};
"        ......xx"};
"        ......xx"};
"..............xx"};
"..............xx"};
"..............xx"};
"..............xx"};
"..............xx"};
"..............xx"};
"xxxxxxxxxxxxxxxx"};
"xxxxxxxxxxxxxxxx"};
