/* XPM */
static char * maximize_prelight_xpm[] = {
"24 26 4 1",
" 	c None",
".	c #569CEF",
"+	c #D3DAE3",
"@	c #0078D7",
"@@@@@@@@@@@@@@@@@@@@@@@@",
"........................",
"........................",
"........................",
"........................",
"........................",
"........................",
"........................",
"........................",
"........++++++++........",
"........+......+........",
"........+......+........",
"........+......+........",
"........+......+........",
"........+......+........",
"........+......+........",
"........++++++++........",
"........................",
"........................",
"........................",
"........................",
"........................",
"........................",
"........................",
"........................",
"........................"};
