/* XPM */
static char * maximize_toggled_prelight_xpm[] = {
"24 26 4 1",
" 	c None",
".	c #478EE2",
"+	c #D3DAE3",
"@	c #0078D7",
"@@@@@@@@@@@@@@@@@@@@@@@@",
"........................",
"........................",
"........................",
"........................",
"........................",
"........................",
"..........++++++++......",
"..........+......+......",
"........++++++++.+......",
"........+......+.+......",
"........+......+.+......",
"........+......+.+......",
"........+......+.+......",
"........+......+++......",
"........+......+........",
"........++++++++........",
"........................",
"........................",
"........................",
"........................",
"........................",
"........................",
"........................",
"........................",
"........................"};
